<svg width="86" height="85" viewBox="0 0 86 85" fill="none" xmlns="http://www.w3.org/2000/svg">
  <path d="M13.2082 31.0133C6.72587 47.5682 15.0712 66.3122 31.7115 72.5722C48.1541 78.7579 66.4311 70.6205 72.8364 54.2622C76.0776 45.9848 75.6119 37.16 72.2558 29.6221L69.3043 30.9362C72.3216 37.713 72.7403 45.6468 69.8264 53.0886C64.0677 67.7953 47.6359 75.1112 32.8534 69.55C17.8933 63.922 10.3904 47.0703 16.2183 32.1869C21.977 17.4802 38.4087 10.1643 53.1912 15.7255L54.3332 12.7033C37.8906 6.51756 19.6136 14.655 13.2082 31.0133Z" fill="#AA6E1A"/>
  <path d="M43.0223 42.6377C43.0223 42.6377 49.22 26.2353 53.1912 15.7255M43.0223 42.6377L69.3043 30.9362M43.0223 42.6377L53.1912 15.7255M53.1912 15.7255C38.4087 10.1643 21.977 17.4802 16.2183 32.1869C10.3904 47.0703 17.8933 63.922 32.8534 69.55C47.6359 75.1112 64.0677 67.7953 69.8264 53.0886C72.7403 45.6468 72.3216 37.713 69.3043 30.9362M53.1912 15.7255L54.3332 12.7033C37.8906 6.51756 19.6136 14.655 13.2082 31.0133C6.72587 47.5682 15.0712 66.3122 31.7115 72.5722C48.1541 78.7579 66.4311 70.6205 72.8364 54.2622C76.0776 45.9848 75.6119 37.16 72.2558 29.6221L69.3043 30.9362" stroke="black" stroke-linejoin="round"/>
  <path d="M32.8535 69.55C47.636 75.1112 64.0677 67.7953 69.8264 53.0886C72.7403 45.6468 72.3216 37.713 69.3043 30.9362L43.0223 42.6377L53.1913 15.7255C38.4088 10.1643 21.977 17.4802 16.2183 32.1869C10.3905 47.0703 17.8933 63.922 32.8535 69.55Z" fill="#FFD591"/>
  <path d="M43.0223 42.6377C43.0223 42.6377 49.2201 26.2353 53.1913 15.7255M43.0223 42.6377L69.3043 30.9362C72.3216 37.713 72.7403 45.6468 69.8264 53.0886C64.0678 67.7953 47.636 75.1112 32.8535 69.55C17.8933 63.922 10.3905 47.0703 16.2183 32.1869C21.977 17.4802 38.4088 10.1643 53.1913 15.7255M43.0223 42.6377L53.1913 15.7255" stroke="black" stroke-linejoin="round"/>
  </svg>
  